<svg width="151" height="28" viewBox="0 0 151 28" fill="none" xmlns="http://www.w3.org/2000/svg">
<path fill-rule="evenodd" clip-rule="evenodd" d="M14.1184 6.8922e-06C14.3343 0.000800382 14.54 0.091438 14.6858 0.249987L28.0392 14.7715L26.8985 15.8109L14.1113 1.90504L1.13291 15.8112L1.77482e-07 14.7635L13.5491 0.24581C13.696 0.0883364 13.9024 -0.000786598 14.1184 6.8922e-06Z" fill="#121212"/>
<path fill-rule="evenodd" clip-rule="evenodd" d="M4.99219 12.5068L12.8613 12.5068L12.8613 17.4642L11.3149 17.4642L11.3149 14.0462L6.53858 14.0462L6.53858 26.4606L11.3149 26.4606L11.3149 19.7425L16.608 19.7425L16.608 26.4606L21.5014 26.4606L21.5014 14.0462L16.608 14.0462L16.608 17.4642L15.0616 17.4642L15.0616 12.5068L23.0478 12.5068L23.0478 28L15.0616 28L15.0616 21.2819L12.8613 21.2819L12.8613 28L4.99219 28L4.99219 12.5068Z" fill="#121212"/>
<path fill-rule="evenodd" clip-rule="evenodd" d="M23.0938 4.9043L23.0938 10.0207L21.5474 10.0207L21.5474 4.9043L23.0938 4.9043Z" fill="#121212"/>
<path d="M40.304 11.5285C41.2571 10.4249 42.4624 9.87302 43.92 9.87302C46.6911 9.87302 48.0967 11.4526 48.1367 14.6117L48.1367 23.0932L45.2175 23.0932L45.2175 14.7196C45.2175 13.8239 45.0213 13.1921 44.6288 12.8242C44.2444 12.4483 43.6758 12.2603 42.9229 12.2603C41.7536 12.2603 40.8807 12.7802 40.304 13.8199L40.304 23.0932L37.3848 23.0932L37.3848 4.66651L40.304 4.66651L40.304 11.5285Z" fill="#121212"/>
<path d="M50.5514 16.4831C50.5514 15.2115 50.8037 14.0678 51.3083 13.0521C51.8128 12.0284 52.5216 11.2446 53.4346 10.7008C54.3476 10.1489 55.3968 9.87302 56.5821 9.87302C58.3361 9.87302 59.7577 10.4369 60.8469 11.5645C61.9441 12.6922 62.5367 14.1878 62.6248 16.0513L62.6369 16.7351C62.6369 18.0147 62.3886 19.1584 61.892 20.1661C61.4035 21.1738 60.6987 21.9536 59.7777 22.5054C58.8647 23.0573 57.8075 23.3332 56.6061 23.3332C54.7721 23.3332 53.3025 22.7253 52.1972 21.5097C51.1 20.286 50.5514 18.6585 50.5514 16.6271L50.5514 16.4831ZM53.4707 16.7351C53.4707 18.0707 53.747 19.1184 54.2996 19.8782C54.8522 20.6299 55.6211 21.0058 56.6061 21.0058C57.5912 21.0058 58.3561 20.6219 58.9007 19.8542C59.4533 19.0864 59.7296 17.9627 59.7296 16.4831C59.7296 15.1715 59.4453 14.1318 58.8767 13.364C58.3161 12.5962 57.5512 12.2123 56.5821 12.2123C55.6291 12.2123 54.8722 12.5922 54.3116 13.352C53.751 14.1038 53.4707 15.2315 53.4707 16.7351Z" fill="#121212"/>
<path d="M67.8507 10.1129L67.9348 11.4686C68.8478 10.4049 70.0972 9.87302 71.6829 9.87302C73.4209 9.87302 74.6102 10.5368 75.2509 11.8644C76.1959 10.5368 77.5254 9.87302 79.2393 9.87302C80.6729 9.87302 81.7381 10.2689 82.4349 11.0607C83.1397 11.8525 83.5001 13.0201 83.5161 14.5637L83.5161 23.0932L80.5968 23.0932L80.5968 14.6477C80.5968 13.8239 80.4166 13.2201 80.0562 12.8362C79.6958 12.4523 79.0992 12.2603 78.2662 12.2603C77.6015 12.2603 77.0569 12.4403 76.6324 12.8002C76.216 13.1521 75.9236 13.6159 75.7555 14.1918L75.7675 23.0932L72.8482 23.0932L72.8482 14.5517C72.8082 13.0241 72.0273 12.2603 70.5056 12.2603C69.3363 12.2603 68.5074 12.7362 68.0188 13.6879L68.0188 23.0932L65.0996 23.0932L65.0996 10.1129L67.8507 10.1129Z" fill="#121212"/>
<path d="M92.2378 23.3332C90.3877 23.3332 88.8861 22.7533 87.7328 21.5937C86.5875 20.426 86.0149 18.8744 86.0149 16.939L86.0149 16.5791C86.0149 15.2835 86.2631 14.1278 86.7597 13.1121C87.2643 12.0884 87.969 11.2926 88.874 10.7248C89.7791 10.1569 90.7882 9.87302 91.9014 9.87302C93.6714 9.87302 95.0369 10.4369 95.998 11.5645C96.9671 12.6922 97.4516 14.2878 97.4516 16.3512L97.4516 17.5268L88.9581 17.5268C89.0462 18.5985 89.4026 19.4463 90.0273 20.0701C90.66 20.6939 91.4529 21.0058 92.406 21.0058C93.7435 21.0058 94.8327 20.466 95.6736 19.3863L97.2474 20.8859C96.7268 21.6616 96.03 22.2655 95.157 22.6974C94.2921 23.1212 93.319 23.3332 92.2378 23.3332ZM91.8894 12.2123C91.0885 12.2123 90.4398 12.4923 89.9432 13.0521C89.4547 13.6119 89.1423 14.3917 89.0062 15.3914L94.5684 15.3914L94.5684 15.1755C94.5043 14.1998 94.244 13.464 93.7875 12.9681C93.331 12.4643 92.6983 12.2123 91.8894 12.2123Z" fill="#121212"/>
<path d="M111.135 16.7351C111.135 18.7505 110.682 20.354 109.777 21.5457C108.88 22.7373 107.643 23.3332 106.065 23.3332C104.543 23.3332 103.358 22.7853 102.509 21.6896L102.365 23.0932L99.7221 23.0932L99.7221 4.6665L102.641 4.6665L102.641 11.3606C103.482 10.3689 104.616 9.87302 106.041 9.87302C107.627 9.87302 108.872 10.4608 109.777 11.6365C110.682 12.8122 111.135 14.4557 111.135 16.5671L111.135 16.7351ZM108.216 16.4831C108.216 15.0755 107.967 14.0198 107.471 13.316C106.974 12.6122 106.253 12.2603 105.308 12.2603C104.043 12.2603 103.154 12.8122 102.641 13.9159L102.641 19.2663C103.162 20.394 104.059 20.9578 105.332 20.9578C106.245 20.9578 106.95 20.6179 107.447 19.9381C107.943 19.2583 108.2 18.2306 108.216 16.855L108.216 16.4831Z" fill="#121212"/>
<path d="M121.358 23.0932C121.23 22.8453 121.118 22.4414 121.022 21.8816C120.093 22.8493 118.956 23.3332 117.61 23.3332C116.305 23.3332 115.239 22.9613 114.414 22.2175C113.59 21.4737 113.177 20.554 113.177 19.4583C113.177 18.0747 113.69 17.015 114.715 16.2792C115.748 15.5354 117.222 15.1635 119.136 15.1635L120.926 15.1635L120.926 14.3117C120.926 13.6399 120.737 13.1041 120.361 12.7042C119.985 12.2963 119.412 12.0924 118.643 12.0924C117.978 12.0924 117.434 12.2603 117.009 12.5962C116.585 12.9241 116.373 13.344 116.373 13.8559L113.453 13.8559C113.453 13.1441 113.69 12.4803 114.162 11.8644C114.635 11.2406 115.275 10.7528 116.084 10.4009C116.901 10.049 117.81 9.87302 118.811 9.87302C120.333 9.87302 121.546 10.2569 122.451 11.0247C123.356 11.7845 123.821 12.8562 123.845 14.2398L123.845 20.0941C123.845 21.2618 124.009 22.1935 124.338 22.8893L124.338 23.0932L121.358 23.0932ZM118.151 20.9938C118.727 20.9938 119.268 20.8539 119.772 20.574C120.285 20.294 120.669 19.9181 120.926 19.4463L120.926 16.999L119.352 16.999C118.271 16.999 117.458 17.1869 116.913 17.5628C116.369 17.9387 116.096 18.4706 116.096 19.1584C116.096 19.7182 116.281 20.1661 116.649 20.502C117.025 20.8299 117.526 20.9938 118.151 20.9938Z" fill="#121212"/>
<path d="M134.188 19.5662C134.188 19.0464 133.972 18.6505 133.54 18.3786C133.115 18.1067 132.406 17.8667 131.413 17.6588C130.42 17.4509 129.591 17.1869 128.927 16.867C127.469 16.1632 126.74 15.1435 126.74 13.8079C126.74 12.6882 127.213 11.7525 128.158 11.0007C129.103 10.2489 130.304 9.87302 131.762 9.87302C133.315 9.87302 134.569 10.2569 135.522 11.0247C136.483 11.7925 136.964 12.7882 136.964 14.0118L134.044 14.0118C134.044 13.452 133.836 12.9881 133.42 12.6202C133.003 12.2443 132.451 12.0564 131.762 12.0564C131.121 12.0564 130.596 12.2044 130.188 12.5003C129.788 12.7962 129.587 13.1921 129.587 13.6879C129.587 14.1358 129.776 14.4837 130.152 14.7316C130.528 14.9796 131.289 15.2315 132.435 15.4874C133.58 15.7353 134.477 16.0353 135.126 16.3872C135.782 16.7311 136.267 17.1469 136.579 17.6348C136.899 18.1227 137.06 18.7145 137.06 19.4103C137.06 20.578 136.575 21.5257 135.606 22.2535C134.637 22.9733 133.368 23.3332 131.798 23.3332C130.733 23.3332 129.784 23.1412 128.951 22.7573C128.118 22.3734 127.469 21.8456 127.004 21.1738C126.54 20.502 126.308 19.7782 126.308 19.0024L129.143 19.0024C129.183 19.6902 129.443 20.2221 129.924 20.598C130.404 20.9658 131.041 21.1498 131.834 21.1498C132.603 21.1498 133.187 21.0058 133.588 20.7179C133.988 20.422 134.188 20.0381 134.188 19.5662Z" fill="#121212"/>
<path d="M145.337 23.3332C143.487 23.3332 141.985 22.7533 140.832 21.5937C139.687 20.426 139.114 18.8744 139.114 16.939L139.114 16.5791C139.114 15.2835 139.362 14.1278 139.859 13.1121C140.363 12.0884 141.068 11.2926 141.973 10.7248C142.878 10.1569 143.887 9.87302 145 9.87302C146.77 9.87302 148.136 10.4369 149.097 11.5645C150.066 12.6922 150.551 14.2878 150.551 16.3512L150.551 17.5268L142.057 17.5268C142.145 18.5985 142.502 19.4463 143.126 20.0701C143.759 20.6939 144.552 21.0058 145.505 21.0058C146.843 21.0058 147.932 20.466 148.773 19.3863L150.346 20.8859C149.826 21.6616 149.129 22.2655 148.256 22.6974C147.391 23.1212 146.418 23.3332 145.337 23.3332ZM144.988 12.2123C144.188 12.2123 143.539 12.4923 143.042 13.0521C142.554 13.6119 142.241 14.3917 142.105 15.3914L147.667 15.3914L147.667 15.1755C147.603 14.1998 147.343 13.464 146.887 12.9681C146.43 12.4643 145.797 12.2123 144.988 12.2123Z" fill="#121212"/>
</svg>
